G04*
G04 #@! TF.GenerationSoftware,Altium Limited,Altium Designer,20.2.8 (258)*
G04*
G04 Layer_Physical_Order=1*
G04 Layer_Color=255*
%FSLAX25Y25*%
%MOIN*%
G70*
G04*
G04 #@! TF.SameCoordinates,A58E8F4F-3466-47BA-BA0B-9B8C8ED51F79*
G04*
G04*
G04 #@! TF.FilePolarity,Positive*
G04*
G01*
G75*
G04:AMPARAMS|DCode=10|XSize=23.62mil|YSize=35.43mil|CornerRadius=5.91mil|HoleSize=0mil|Usage=FLASHONLY|Rotation=180.000|XOffset=0mil|YOffset=0mil|HoleType=Round|Shape=RoundedRectangle|*
%AMROUNDEDRECTD10*
21,1,0.02362,0.02362,0,0,180.0*
21,1,0.01181,0.03543,0,0,180.0*
1,1,0.01181,-0.00591,0.01181*
1,1,0.01181,0.00591,0.01181*
1,1,0.01181,0.00591,-0.01181*
1,1,0.01181,-0.00591,-0.01181*
%
%ADD10ROUNDEDRECTD10*%
G04:AMPARAMS|DCode=11|XSize=19.68mil|YSize=34mil|CornerRadius=2.95mil|HoleSize=0mil|Usage=FLASHONLY|Rotation=270.000|XOffset=0mil|YOffset=0mil|HoleType=Round|Shape=RoundedRectangle|*
%AMROUNDEDRECTD11*
21,1,0.01968,0.02809,0,0,270.0*
21,1,0.01378,0.03400,0,0,270.0*
1,1,0.00591,-0.01405,-0.00689*
1,1,0.00591,-0.01405,0.00689*
1,1,0.00591,0.01405,0.00689*
1,1,0.00591,0.01405,-0.00689*
%
%ADD11ROUNDEDRECTD11*%
%ADD12C,0.02756*%
%ADD13C,0.01575*%
%ADD14R,0.07874X0.07874*%
%ADD15C,0.07874*%
%ADD16R,0.07874X0.07874*%
G36*
X420276Y250787D02*
Y217618D01*
X415945Y213287D01*
X415256D01*
X356693Y213287D01*
X353248D01*
X350984Y215551D01*
Y218996D01*
Y226597D01*
X351984Y227089D01*
X352559Y227203D01*
X353617Y226391D01*
X355006Y225816D01*
X356496Y225620D01*
X357986Y225816D01*
X359375Y226391D01*
X360457Y227222D01*
X362894D01*
X363938Y226178D01*
X364044Y225646D01*
X364500Y224962D01*
X365184Y224506D01*
X365847Y224374D01*
X366573Y224073D01*
X367395Y223965D01*
X372074D01*
X372874Y223165D01*
Y216240D01*
X384291D01*
Y216240D01*
X385631Y216809D01*
X385866Y216895D01*
X387092Y216387D01*
X388583Y216191D01*
X390073Y216387D01*
X391462Y216962D01*
X392654Y217877D01*
X393569Y219070D01*
X393719Y219431D01*
X397146D01*
Y217559D01*
X408563D01*
Y218371D01*
X408593Y218433D01*
X410138Y219541D01*
X410139Y219540D01*
X411320D01*
X412242Y219724D01*
X413024Y220246D01*
X413546Y221027D01*
X413729Y221949D01*
Y222539D01*
X413807Y223130D01*
X413729Y223721D01*
Y224311D01*
X413546Y225233D01*
X413024Y226014D01*
X412242Y226536D01*
X411320Y226719D01*
X410139D01*
X409291Y227903D01*
X409266Y228362D01*
X409450Y228640D01*
X410594Y229678D01*
X411320D01*
X412242Y229861D01*
X413024Y230384D01*
X413546Y231165D01*
X413729Y232087D01*
Y232677D01*
X413807Y233268D01*
X413729Y233858D01*
Y234449D01*
X413546Y235370D01*
X413024Y236152D01*
X412242Y236674D01*
X411320Y236857D01*
X410139D01*
X409218Y236674D01*
X408874Y236444D01*
X407612D01*
X406988Y237259D01*
X406926Y237372D01*
Y239021D01*
X408061Y240258D01*
X409125D01*
X409218Y240196D01*
X410139Y240013D01*
X411320D01*
X412242Y240196D01*
X413024Y240718D01*
X413546Y241500D01*
X413729Y242421D01*
Y243012D01*
X413807Y243602D01*
X413729Y244193D01*
Y244783D01*
X413546Y245705D01*
X413024Y246486D01*
X412242Y247009D01*
X411320Y247192D01*
X410139D01*
X409218Y247009D01*
X408624Y246612D01*
X407484D01*
X406926Y247339D01*
X405733Y248254D01*
X404345Y248830D01*
X402854Y249026D01*
X401364Y248830D01*
X399975Y248254D01*
X398783Y247339D01*
X398565Y247055D01*
X395549D01*
X395420Y247367D01*
X394504Y248560D01*
X393312Y249475D01*
X391923Y250050D01*
X390433Y250246D01*
X388943Y250050D01*
X387717Y249542D01*
X387495Y249623D01*
X386142Y250197D01*
X386142Y250197D01*
X386142Y250197D01*
X379217D01*
X376560Y252854D01*
X377212Y254429D01*
X416634D01*
X420276Y250787D01*
D02*
G37*
D10*
X410730Y223130D02*
D03*
X416435D02*
D03*
X410730Y233268D02*
D03*
X416435D02*
D03*
X410730Y243602D02*
D03*
X416435D02*
D03*
D11*
X367395Y221436D02*
D03*
X367395Y227142D02*
D03*
D12*
X366831Y238524D02*
Y244272D01*
Y238524D02*
X368445Y236910D01*
X402323Y233268D02*
X410630D01*
X368445Y236910D02*
X398681D01*
X402323Y233268D01*
X366713Y244390D02*
X366831Y244272D01*
X357475Y230399D02*
X364210D01*
X367395Y227213D01*
Y227142D02*
X373390D01*
X378583Y221949D01*
X356496Y231378D02*
X357475Y230399D01*
X367395Y227142D02*
Y227213D01*
X356604Y244282D02*
X356713Y244390D01*
X356604Y231486D02*
Y244282D01*
X356496Y231378D02*
X356604Y231486D01*
X362008Y251969D02*
X372953D01*
X356713Y244390D02*
X359272Y246949D01*
Y249232D01*
X362008Y251969D01*
X372953D02*
X380433Y244488D01*
X402195Y222608D02*
X402854Y223268D01*
X389242Y222608D02*
X402195D01*
X388583Y221949D02*
X389242Y222608D01*
X402244Y243878D02*
X402854Y243268D01*
X391043Y243878D02*
X402244D01*
X390433Y244488D02*
X391043Y243878D01*
X410463Y243435D02*
X410630Y243602D01*
X403022Y243435D02*
X410463D01*
X402854Y243268D02*
X403022Y243435D01*
X410561Y223199D02*
X410630Y223130D01*
X402923Y223199D02*
X410561D01*
X402854Y223268D02*
X402923Y223199D01*
D13*
X379921Y228642D02*
Y232971D01*
X382086D01*
X382807Y232249D01*
Y230806D01*
X382086Y230085D01*
X379921D01*
X388580Y232971D02*
Y228642D01*
X390023Y230085D01*
X391466Y228642D01*
Y232971D01*
D14*
X356713Y244390D02*
D03*
X378583Y221949D02*
D03*
X380433Y244488D02*
D03*
D15*
X366713Y244390D02*
D03*
X402854Y233268D02*
D03*
X402854Y243268D02*
D03*
X356496Y231378D02*
D03*
X388583Y221949D02*
D03*
X390433Y244488D02*
D03*
D16*
X402854Y223268D02*
D03*
X356496Y221378D02*
D03*
M02*
